<svg version="1.1" xmlns="http://www.w3.org/2000/svg" xmlns:xlink="http://www.w3.org/1999/xlink" width="205.34469" height="205.32621" viewBox="0,0,205.34469,205.32621"><defs><linearGradient x1="2438.79097" y1="1040.08702" x2="2539.29854" y2="1038.26695" gradientUnits="userSpaceOnUse" id="color-1"><stop offset="0" stop-color="#e6e6e6"/><stop offset="1" stop-color="#811150"/></linearGradient></defs><g transform="translate(-1328.71828,-676.05655)"><g data-paper-data="{&quot;isPaintingLayer&quot;:true}" fill-rule="nonzero" stroke="#ffffff" stroke-width="1.15823" stroke-linecap="butt" stroke-linejoin="miter" stroke-miterlimit="10" stroke-dasharray="" stroke-dashoffset="0" style="mix-blend-mode: normal"><path d="M1533.46536,776.79643c1.06217,56.37943 -43.78133,102.94505 -100.16076,104.00721c-56.37943,1.06217 -102.94505,-43.78134 -104.00721,-100.16077c-1.06217,-56.37943 43.78134,-102.94504 100.16077,-104.00721c56.37943,-1.06217 102.94504,43.78133 104.00721,100.16076z" fill="#000000"/><path d="M1463.80209,770.40448c4.20979,-4.36942 11.16846,-4.4954 15.53685,-0.28136c4.37146,4.21198 4.4974,11.16865 0.28142,15.54019c-16.63426,17.24788 -38.39956,39.81499 -38.39956,39.81499c-4.21204,4.36835 -11.16982,4.49431 -15.53908,0.2814c0,0 -26.15368,-25.2201 -40.13735,-38.70846c-4.36948,-4.21291 -4.49429,-11.16849 -0.28142,-15.53997c4.21291,-4.36948 11.16958,-4.49542 15.53908,-0.2814c17.24677,16.63428 21.02982,20.2392 21.02982,20.2392c0,0 -0.96796,-54.69895 -1.31966,-74.12369c-0.10989,-6.06904 4.71937,-11.07762 10.78841,-11.18751c6.06815,-0.10987 11.07765,4.72071 11.18775,10.78951c0.41957,23.16888 1.32168,74.18331 1.32168,74.18331c0,0 6.49972,-6.74025 19.99205,-20.72622z" fill="url(#color-1)"/></g></g></svg>