<svg version="1.1" xmlns="http://www.w3.org/2000/svg" xmlns:xlink="http://www.w3.org/1999/xlink" width="205.34923" height="205.36318" viewBox="0,0,205.34923,205.36318"><defs><linearGradient x1="2372.28055" y1="264.19049" x2="2472.78812" y2="266.01056" gradientUnits="userSpaceOnUse" id="color-1"><stop offset="0" stop-color="#e6e6e6"/><stop offset="1" stop-color="#811150"/></linearGradient></defs><g transform="translate(-1262.18937,-422.87627)"><g data-paper-data="{&quot;isPaintingLayer&quot;:true}" fill-rule="nonzero" stroke="#ffffff" stroke-width="1.15823" stroke-linecap="butt" stroke-linejoin="miter" stroke-miterlimit="10" stroke-dasharray="" stroke-dashoffset="0" style="mix-blend-mode: normal"><path d="M1466.95495,527.48109c-1.06217,56.37943 -47.62778,101.22293 -104.00721,100.16076c-56.37943,-1.06217 -101.22294,-47.62778 -100.16077,-104.00721c1.06216,-56.37943 47.62778,-101.22294 104.00721,-100.16077c56.37943,1.06216 101.22293,47.62778 100.16076,104.00721z" data-paper-data="{&quot;index&quot;:null}" fill="#000000"/><path d="M1397.29166,533.87304c-13.49233,-13.98597 -19.99205,-20.72622 -19.99205,-20.72622c0,0 -0.90211,51.01443 -1.32168,74.18331c-0.1101,6.0688 -5.1196,10.89938 -11.18775,10.78951c-6.06904,-0.10989 -10.8983,-5.11847 -10.78841,-11.18751c0.3517,-19.42474 1.31966,-74.12369 1.31966,-74.12369c0,0 -3.78305,3.60492 -21.02982,20.2392c-4.3695,4.21402 -11.32617,4.08808 -15.53908,-0.2814c-4.21287,-4.37148 -4.08806,-11.32706 0.28142,-15.53997c13.98367,-13.48836 40.13735,-38.70846 40.13735,-38.70846c4.36926,-4.21291 11.32704,-4.08695 15.53908,0.2814c0,0 21.7653,22.56711 38.39956,39.81499c4.21598,4.37154 4.09004,11.32821 -0.28142,15.54019c-4.36839,4.21404 -11.32706,4.08806 -15.53685,-0.28136z" data-paper-data="{&quot;index&quot;:null}" fill="url(#color-1)"/></g></g></svg>